<svg width="32" height="32" viewBox="0 0 32 32" fill="none" xmlns="http://www.w3.org/2000/svg">
<g clip-path="url(#clip0_2301_3)">
<path d="M0 29.2V16.44C0 15.9067 0.109091 15.4133 0.327273 14.96C0.545455 14.5067 0.848485 14.1333 1.23636 13.84L8.50909 8.12C9.01818 7.72 9.57576 7.52 10.1818 7.52C10.7879 7.52 11.3455 7.72 11.8545 8.12L19.1273 13.84C19.4424 14.08 19.7091 14.3797 19.9273 14.7392C20.1455 15.0997 20.2909 15.48 20.3636 15.88C19.8061 16.1733 19.2848 16.5131 18.8 16.8992C18.3152 17.2864 17.8667 17.72 17.4545 18.2V16.4L10.1818 10.72L2.90909 16.4V27.6H5.81818V19.6H14.5455V27.6H14.6545C14.7273 28.16 14.8364 28.7067 14.9818 29.24C15.1273 29.7733 15.3091 30.2933 15.5273 30.8H11.6364V22.8H8.72727V30.8H1.45455C1.04242 30.8 0.697212 30.6464 0.418909 30.3392C0.139636 30.0331 0 29.6533 0 29.2ZM32 5.2V18.2C31.5879 17.72 31.1394 17.2864 30.6545 16.8992C30.1697 16.5131 29.6485 16.1733 29.0909 15.88V5.2H16V7.44L13.0909 5.12C13.0909 4.26667 13.376 3.53333 13.9462 2.92C14.5154 2.30667 15.2 2 16 2H29.0909C29.8909 2 30.576 2.31307 31.1462 2.9392C31.7154 3.5664 32 4.32 32 5.2ZM23.2727 11.6H26.1818V8.4H23.2727V11.6ZM24.7273 34C22.7152 34 21.0002 33.2203 19.5825 31.6608C18.1639 30.1003 17.4545 28.2133 17.4545 26C17.4545 23.7867 18.1639 21.8997 19.5825 20.3392C21.0002 18.7797 22.7152 18 24.7273 18C26.7394 18 28.4548 18.7797 29.8735 20.3392C31.2912 21.8997 32 23.7867 32 26C32 28.2133 31.2912 30.1003 29.8735 31.6608C28.4548 33.2203 26.7394 34 24.7273 34ZM24 26.8V30C24 30.2133 24.0727 30.4 24.2182 30.56C24.3636 30.72 24.5333 30.8 24.7273 30.8C24.9212 30.8 25.0909 30.72 25.2364 30.56C25.3818 30.4 25.4545 30.2133 25.4545 30V26.8H28.3636C28.5576 26.8 28.7273 26.72 28.8727 26.56C29.0182 26.4 29.0909 26.2133 29.0909 26C29.0909 25.7867 29.0182 25.6 28.8727 25.44C28.7273 25.28 28.5576 25.2 28.3636 25.2H25.4545V22C25.4545 21.7867 25.3818 21.6 25.2364 21.44C25.0909 21.28 24.9212 21.2 24.7273 21.2C24.5333 21.2 24.3636 21.28 24.2182 21.44C24.0727 21.6 24 21.7867 24 22V25.2H21.0909C20.897 25.2 20.7273 25.28 20.5818 25.44C20.4364 25.6 20.3636 25.7867 20.3636 26C20.3636 26.2133 20.4364 26.4 20.5818 26.56C20.7273 26.72 20.897 26.8 21.0909 26.8H24Z" fill="currentColor"/>
</g>
<defs>
<clipPath id="clip0_2301_3">
<rect width="32" height="32" fill="white"/>
</clipPath>
</defs>
</svg>
