<?xml version="1.0" standalone="no"?>
<!DOCTYPE svg PUBLIC "-//W3C//DTD SVG 20010904//EN"
 "http://www.w3.org/TR/2001/REC-SVG-20010904/DTD/svg10.dtd">
<svg version="1.0" xmlns="http://www.w3.org/2000/svg"
 width="145.000000pt" height="187.000000pt" viewBox="0 0 145.000000 187.000000"
 preserveAspectRatio="xMidYMid meet">

<g transform="translate(0.000000,187.000000) scale(0.100000,-0.100000)"
fill="#000000" stroke="none">
<path d="M377 1773 c-24 -28 -32 -31 -49 -22 -22 12 -21 12 -37 -18 -17 -34
-13 -61 12 -78 l23 -15 -27 -132 c-23 -117 -28 -176 -39 -485 -11 -325 -11
-360 5 -445 26 -137 62 -264 96 -337 26 -58 28 -67 17 -98 -14 -40 0 -56 41
-49 14 2 31 -3 39 -11 10 -10 24 -12 41 -8 14 3 37 8 51 9 14 2 31 4 38 4 8 2
12 26 12 85 0 45 6 105 14 132 13 51 35 95 47 95 4 0 13 -24 19 -52 7 -29 23
-88 37 -130 17 -55 21 -83 14 -96 -15 -28 5 -54 39 -50 15 1 35 -3 43 -11 10
-7 21 -9 29 -4 7 4 27 8 43 8 30 0 30 1 36 65 4 36 4 89 1 119 -5 50 -4 54 14
47 91 -35 217 -46 299 -25 54 14 118 67 147 123 30 56 31 154 3 186 -27 30
-63 43 -102 35 -25 -4 -34 -13 -43 -41 -37 -111 -167 -166 -265 -111 l-40 23
-7 94 c-4 52 -22 149 -39 215 -26 98 -32 141 -33 231 -1 109 0 113 36 183 l36
72 -69 34 -69 35 0 119 c0 93 3 121 15 131 20 17 18 47 -5 90 -18 33 -19 34
-20 10 -1 -23 -2 -24 -11 -5 -6 11 -21 28 -35 38 -23 17 -24 17 -24 0 0 -24
-32 -44 -51 -32 -16 10 -35 12 -26 3 3 -4 2 -16 -4 -27 -9 -15 -7 -25 9 -46
16 -22 18 -36 13 -96 l-6 -70 -75 -5 c-41 -3 -85 -11 -97 -18 -21 -12 -22 -11
-18 15 2 16 7 64 10 107 4 64 9 82 25 93 21 15 26 58 10 83 -9 13 -11 13 -20
0 -8 -13 -10 -13 -10 1 0 9 -15 28 -32 41 l-33 24 -28 -33z m54 -13 c10 -6 19
-17 19 -25 0 -8 6 -15 14 -15 23 0 29 -33 9 -50 -16 -12 -21 -40 -31 -160 -7
-80 -15 -165 -18 -190 -4 -37 -3 -41 6 -22 l10 24 26 -21 c15 -12 33 -21 41
-21 11 0 11 -4 3 -21 -7 -12 -18 -18 -26 -15 -22 8 -16 -11 8 -28 29 -20 61
-22 33 -3 -10 8 -15 19 -11 26 10 16 23 6 42 -35 40 -84 171 -85 206 0 31 75
-8 127 -102 134 -51 4 -60 7 -60 24 0 10 -7 32 -15 48 l-16 30 80 0 81 0 -10
-26 c-6 -14 -10 -29 -10 -35 0 -5 37 -27 83 -50 113 -57 111 -54 82 -97 -13
-21 -31 -65 -40 -99 -20 -78 -8 -213 31 -348 16 -59 27 -123 29 -183 3 -73 8
-98 22 -114 30 -33 91 -59 141 -59 89 -1 149 37 187 116 23 50 28 55 59 55 19
0 45 -9 60 -21 65 -51 5 -218 -97 -270 -86 -44 -248 -31 -375 32 -82 40 -171
123 -202 188 -29 64 -35 60 -12 -8 21 -61 73 -118 157 -173 33 -22 63 -47 67
-56 9 -22 8 -149 -1 -181 -10 -38 -35 -41 -27 -4 8 37 -9 53 -46 46 -35 -7
-36 -30 -3 -45 30 -14 33 -28 5 -28 -11 0 -20 4 -20 8 0 4 -12 8 -27 7 -24 0
-28 4 -29 30 0 17 -12 66 -26 110 -14 44 -31 104 -39 133 -11 44 -16 52 -33
50 -32 -5 -68 -106 -75 -213 -5 -75 -9 -90 -23 -93 -14 -3 -18 4 -18 32 0 42
-8 48 -49 40 -39 -8 -38 -33 2 -52 15 -7 27 -17 27 -21 0 -17 -33 -21 -50 -6
-9 9 -25 13 -34 9 -24 -9 -48 14 -36 36 7 13 1 37 -26 96 -64 137 -121 418
-110 538 4 41 11 188 16 327 8 228 23 370 51 496 8 37 6 46 -11 63 -11 11 -20
24 -20 29 0 15 31 42 41 35 5 -3 21 4 35 15 31 24 30 24 55 11z m347 -90 c17
0 25 -40 11 -56 -9 -11 -12 -49 -10 -129 1 -62 -2 -115 -7 -119 -5 -3 -17 0
-26 7 -14 10 -15 18 -7 40 17 44 14 47 -35 47 l-47 0 6 80 c4 47 2 82 -3 85
-6 3 -10 17 -10 31 0 18 5 24 23 24 12 0 31 7 42 16 18 14 21 13 37 -6 9 -11
21 -20 26 -20z m-205 -262 c31 -37 16 -91 -30 -109 -58 -22 -118 38 -92 93 22
50 86 58 122 16z m132 -94 c87 -41 54 -154 -45 -154 -44 0 -73 20 -90 59 -16
41 -6 77 28 95 35 20 66 20 107 0z"/>
<path d="M830 583 c30 -28 57 -49 60 -46 6 6 -65 69 -95 86 -11 5 5 -12 35
-40z"/>
<path d="M494 1339 c-3 -6 -1 -16 5 -22 8 -8 11 -5 11 11 0 24 -5 28 -16 11z"/>
<path d="M602 1220 c0 -14 2 -19 5 -12 2 6 2 18 0 25 -3 6 -5 1 -5 -13z"/>
</g>
</svg>
