<?xml version="1.0" standalone="no"?>
<!DOCTYPE svg PUBLIC "-//W3C//DTD SVG 20010904//EN"
 "http://www.w3.org/TR/2001/REC-SVG-20010904/DTD/svg10.dtd">
<svg version="1.0" xmlns="http://www.w3.org/2000/svg"
 width="1080.000000pt" height="1920.000000pt" viewBox="0 0 1080.000000 1920.000000"
 preserveAspectRatio="xMidYMid meet">

<g transform="translate(0.000000,1920.000000) scale(0.100000,-0.100000)"
fill="#000000" stroke="none">
<path d="M5751 11969 c-154 -12 -325 -41 -471 -80 -41 -12 -88 -24 -105 -29
-86 -23 -346 -130 -435 -178 -120 -65 -163 -91 -258 -154 -545 -364 -938 -921
-1097 -1556 -52 -210 -78 -412 -73 -577 l3 -120 32 -3 c41 -4 49 12 58 108 9
92 49 301 76 395 181 629 609 1159 1179 1463 631 335 1383 372 2039 100 598
-248 1076 -731 1312 -1326 54 -135 94 -268 119 -387 6 -33 14 -71 17 -85 35
-172 44 -516 18 -707 -56 -428 -213 -816 -463 -1148 -306 -404 -714 -693
-1193 -844 -203 -64 -370 -96 -554 -106 -141 -8 -155 -11 -155 -35 0 -29 49
-34 252 -26 217 8 400 34 578 83 30 8 69 18 85 23 68 18 126 39 239 85 720
291 1275 881 1520 1616 102 306 143 587 133 924 -31 1110 -746 2076 -1802
2433 -337 114 -696 159 -1054 131z"/>
<path d="M6625 11100 c-62 -40 -82 -57 -158 -130 -109 -104 -206 -246 -245
-357 -6 -18 -16 -33 -21 -33 -13 0 -41 -53 -41 -78 0 -10 -13 -38 -29 -62 -16
-24 -27 -49 -24 -57 3 -7 -4 -33 -16 -58 -12 -25 -21 -49 -21 -55 0 -5 -9 -15
-20 -22 -17 -11 -20 -24 -20 -88 0 -90 -16 -123 -49 -102 -12 6 -27 12 -35 12
-8 0 -19 6 -23 13 -4 6 -19 12 -32 12 -21 0 -27 7 -38 50 -23 90 -11 238 22
275 15 17 9 33 -17 43 -40 14 -36 305 5 399 25 55 72 118 88 118 6 0 21 -11
35 -25 21 -21 23 -27 12 -45 -7 -11 -16 -20 -20 -20 -5 0 -8 -5 -8 -12 0 -9 3
-9 12 0 7 7 22 12 35 12 28 0 29 10 3 43 -11 14 -20 29 -20 34 0 5 -10 19 -22
30 -21 20 -26 20 -59 7 -55 -23 -71 -63 -110 -269 -27 -144 -12 -495 27 -632
5 -18 -2 -25 -50 -48 -57 -27 -88 -64 -100 -121 -5 -23 -1 -36 18 -59 18 -20
24 -36 20 -52 -14 -53 38 -128 80 -117 33 8 79 -34 79 -72 0 -27 -32 -147 -54
-202 -22 -56 5 -122 51 -122 31 0 63 -134 44 -184 -9 -24 -301 -12 -363 15
-55 24 -163 26 -181 4 -20 -24 -3 -33 70 -39 142 -11 259 -27 340 -47 49 -12
108 -19 140 -17 l55 3 10 54 c6 30 16 56 22 58 12 4 123 -143 123 -163 0 -7
-29 -35 -65 -64 -36 -28 -74 -64 -85 -80 -25 -35 -26 -70 -2 -70 27 0 40 13
57 52 8 21 25 43 37 49 12 6 33 22 47 35 14 13 29 24 34 24 19 0 25 -51 15
-131 -15 -129 3 -343 37 -434 21 -54 83 -91 110 -66 6 4 76 34 158 66 l147 58
115 -52 c145 -66 316 -131 464 -176 64 -20 145 -50 180 -67 52 -25 81 -32 151
-36 56 -3 90 -1 94 6 7 12 -47 42 -76 42 -25 0 -73 25 -90 47 -7 10 -23 26
-35 36 -21 18 -23 18 -52 1 l-30 -18 -88 61 c-96 66 -240 144 -345 188 -38 15
-68 31 -68 35 0 8 7 11 130 56 41 15 104 42 140 59 99 50 200 149 119 116 -13
-5 -48 -19 -77 -31 -43 -17 -64 -20 -108 -14 -57 7 -56 7 -68 -47 -6 -25 -11
-28 -93 -38 -49 -6 -104 -14 -123 -18 -19 -3 -55 -6 -79 -7 l-43 -1 -24 85
c-45 157 -97 305 -117 335 -31 47 -79 95 -109 111 -33 17 -36 44 -8 69 27 24
42 15 96 -57 27 -37 43 -53 39 -38 -12 38 -11 123 1 127 6 2 30 -10 55 -27 65
-44 66 -37 3 26 -47 47 -55 61 -52 88 2 23 7 30 21 28 17 -3 76 -39 105 -63 7
-6 16 -9 18 -6 3 3 -16 25 -43 50 -37 36 -45 49 -36 58 9 9 19 9 45 -1 59 -24
166 -94 227 -148 60 -52 82 -57 56 -11 -8 13 -17 31 -21 39 -15 33 -59 70 -82
70 -31 0 -129 55 -142 81 -9 16 -7 21 16 30 46 17 133 -15 134 -48 0 -7 5 -13
10 -13 15 0 1 53 -17 65 -9 6 -29 19 -47 30 -38 25 -44 57 -17 84 l21 21 -31
0 c-20 0 -43 10 -64 29 -18 16 -39 31 -47 34 -9 3 -5 13 16 31 l29 26 -36 0
c-39 0 -55 14 -38 33 5 7 8 23 4 35 -4 15 0 24 13 29 11 4 25 13 32 20 11 11
10 13 -7 13 -12 0 -30 5 -41 12 -15 10 -31 8 -82 -10 -86 -30 -118 -30 -118 3
0 14 3 25 8 25 4 0 16 7 26 15 19 14 19 16 2 34 -10 11 -15 25 -11 31 4 6 1
18 -6 26 -7 9 -14 45 -16 81 -1 37 -6 69 -10 72 -5 3 -15 20 -24 36 -13 24
-14 37 -5 66 6 20 17 44 25 53 11 13 11 20 3 28 -9 9 -16 2 -27 -26 -13 -31
-18 -36 -31 -25 -8 6 -12 20 -9 29 4 12 -1 19 -16 23 -18 5 -21 12 -17 41 3
28 0 36 -12 36 -47 0 -67 77 -27 105 20 15 21 17 5 26 -24 13 -23 27 8 106 92
240 206 386 377 482 21 11 40 21 42 21 12 0 3 -21 -17 -40 -28 -26 -13 -26 43
1 57 27 56 27 33 44 -27 21 -94 18 -129 -5z m-235 -1059 c0 -21 -51 -47 -74
-38 -13 5 -13 10 -1 33 7 15 19 31 26 35 18 11 49 -8 49 -30z m-181 -729 c25
-21 61 -48 79 -61 17 -12 32 -30 32 -38 0 -20 -28 -53 -45 -53 -17 0 -113 104
-125 135 -25 65 -7 70 59 17z m251 -677 c68 -104 69 -111 7 -136 -18 -7 -53
-27 -80 -46 -26 -18 -52 -33 -57 -33 -16 0 -11 60 10 130 11 35 22 90 26 122
4 36 11 58 19 58 7 0 41 -43 75 -95z"/>
<path d="M6780 11046 c0 -15 18 -31 26 -23 7 7 -7 37 -17 37 -5 0 -9 -6 -9
-14z"/>
<path d="M6790 10985 c0 -9 6 -12 15 -9 8 4 12 10 9 15 -8 14 -24 10 -24 -6z"/>
<path d="M6758 10963 c7 -3 16 -2 19 1 4 3 -2 6 -13 5 -11 0 -14 -3 -6 -6z"/>
<path d="M6760 10913 c-78 -44 -185 -123 -167 -123 9 0 17 5 17 10 0 6 6 10
14 10 8 0 16 3 18 8 2 4 31 22 64 40 84 44 133 42 87 -3 -14 -14 -14 -18 -2
-26 23 -14 27 -11 34 31 7 39 0 80 -13 80 -4 -1 -27 -12 -52 -27z"/>
<path d="M6010 10830 c-50 -55 -50 -70 0 -21 23 22 46 41 51 41 5 0 9 5 9 10
0 21 -26 8 -60 -30z"/>
<path d="M6033 10774 c-24 -24 -43 -49 -43 -55 0 -6 12 3 26 20 16 19 35 31
50 31 31 0 32 -26 2 -57 -12 -13 -16 -23 -10 -23 7 0 12 4 12 9 0 15 32 22 46
10 11 -9 14 -7 14 8 0 23 -37 103 -48 103 -4 0 -26 -21 -49 -46z"/>
<path d="M6792 10720 c-16 -15 -19 -25 -13 -38 27 -52 32 -72 29 -97 -2 -16 2
-30 10 -32 9 -4 12 19 12 91 0 53 -4 96 -8 96 -5 0 -18 -9 -30 -20z"/>
<path d="M6130 10685 c-10 -12 -10 -15 4 -15 9 0 16 7 16 15 0 8 -2 15 -4 15
-2 0 -9 -7 -16 -15z"/>
<path d="M5951 10664 c0 -11 3 -14 6 -6 3 7 2 16 -1 19 -3 4 -6 -2 -5 -13z"/>
<path d="M6407 10669 c-9 -6 -17 -18 -17 -27 0 -14 4 -13 22 6 24 24 22 36 -5
21z"/>
<path d="M5912 10628 c-14 -14 -16 -44 -3 -52 5 -3 11 2 14 12 2 9 8 25 12 35
8 20 -5 23 -23 5z"/>
<path d="M6155 10611 c-3 -5 -1 -12 5 -16 5 -3 10 1 10 9 0 18 -6 21 -15 7z"/>
<path d="M6708 10603 c7 -3 16 -2 19 1 4 3 -2 6 -13 5 -11 0 -14 -3 -6 -6z"/>
<path d="M6628 10563 c7 -3 16 -2 19 1 4 3 -2 6 -13 5 -11 0 -14 -3 -6 -6z"/>
<path d="M5971 10513 c0 -13 -5 -23 -11 -23 -5 0 -10 -10 -10 -22 1 -22 2 -21
16 5 8 16 13 36 11 45 -3 12 -5 11 -6 -5z"/>
<path d="M6830 10515 c0 -9 -7 -18 -15 -21 -20 -8 -9 -24 16 -24 14 0 19 7 19
30 0 17 -4 30 -10 30 -5 0 -10 -7 -10 -15z"/>
<path d="M5924 10429 c-3 -6 -1 -16 5 -22 8 -8 11 -5 11 11 0 24 -5 28 -16 11z"/>
<path d="M5970 10358 c11 -12 20 -27 20 -32 0 -6 5 -3 11 7 15 26 4 47 -26 47
l-26 0 21 -22z"/>
<path d="M6837 10346 c-3 -8 -2 -18 3 -21 13 -8 13 -48 -1 -62 -8 -8 -8 -17 0
-31 14 -26 4 -51 -23 -62 -21 -9 -21 -9 1 -9 12 -1 27 -9 32 -18 20 -33 30 7
25 101 -3 58 -9 95 -18 104 -11 11 -14 11 -19 -2z"/>
<path d="M6740 10310 c-8 -5 -23 -10 -33 -10 -25 0 -113 -43 -98 -48 16 -5
179 47 187 59 7 12 -37 11 -56 -1z"/>
<path d="M6673 10203 c9 -2 25 -2 35 0 9 3 1 5 -18 5 -19 0 -27 -2 -17 -5z"/>
<path d="M6613 10183 c9 -2 25 -2 35 0 9 3 1 5 -18 5 -19 0 -27 -2 -17 -5z"/>
<path d="M6558 10163 c7 -3 16 -2 19 1 4 3 -2 6 -13 5 -11 0 -14 -3 -6 -6z"/>
<path d="M6508 10143 c7 -3 16 -2 19 1 4 3 -2 6 -13 5 -11 0 -14 -3 -6 -6z"/>
<path d="M6815 10096 c-18 -13 -18 -15 -2 -30 9 -10 17 -20 17 -24 0 -10 -58
-42 -78 -43 -9 -1 -3 -4 13 -8 20 -4 30 -12 29 -24 -3 -27 15 -20 36 16 20 32
29 127 12 127 -5 0 -17 -6 -27 -14z"/>
<path d="M6548 9973 c6 -2 18 -2 25 0 6 3 1 5 -13 5 -14 0 -19 -2 -12 -5z"/>
<path d="M6732 9933 c-26 -5 -40 -29 -25 -44 5 -5 22 3 43 21 34 28 31 32 -18
23z"/>
<path d="M4408 9840 c-170 -27 -387 -119 -465 -197 -52 -52 -94 -138 -101
-205 -6 -67 36 -264 88 -412 57 -161 27 -339 -80 -475 -46 -58 -125 -120 -154
-121 -45 0 12 176 85 263 17 21 56 52 85 69 55 30 67 51 38 62 -18 7 -105 -34
-145 -68 -53 -46 -123 -143 -165 -230 -47 -96 -53 -129 -28 -164 39 -56 180 3
304 127 58 59 85 96 117 161 56 115 66 158 66 275 0 85 -5 114 -32 195 -64
192 -84 372 -48 437 46 86 104 125 253 174 54 17 100 23 214 26 154 5 254 -9
306 -43 53 -35 79 -130 53 -188 -13 -29 2 -59 25 -50 18 7 53 81 67 141 15 63
4 94 -51 151 -64 64 -97 75 -245 78 -71 2 -156 -1 -187 -6z"/>
<path d="M6628 9843 c7 -3 16 -2 19 1 4 3 -2 6 -13 5 -11 0 -14 -3 -6 -6z"/>
<path d="M6853 9773 c9 -11 17 -31 17 -46 0 -24 4 -26 62 -33 55 -6 66 -11
105 -50 l43 -43 0 33 c0 36 -12 45 -90 66 -67 18 -89 31 -103 59 -7 14 -21 27
-32 30 -19 3 -19 3 -2 -16z"/>
<path d="M7060 9555 c-7 -8 -26 -15 -43 -15 -41 0 -28 -10 51 -40 42 -16 71
-34 78 -48 8 -16 13 -19 22 -10 26 26 12 55 -50 101 -43 32 -42 31 -58 12z"/>
<path d="M2121 9491 c-38 -41 -47 -90 -25 -137 26 -55 67 -76 134 -69 95 10
275 50 413 90 69 20 116 9 147 -35 48 -68 7 -164 -130 -298 -93 -91 -124 -106
-204 -98 -101 10 -208 -27 -283 -99 -51 -50 -56 -83 -16 -114 14 -12 37 -24
50 -27 47 -12 209 63 345 158 13 10 23 7 50 -11 58 -40 79 -83 76 -154 l-3
-61 -60 -24 c-33 -14 -69 -28 -80 -32 -196 -74 -525 -227 -606 -281 -66 -44
-167 -143 -209 -204 -61 -88 -26 -206 75 -255 45 -22 52 -22 126 -11 119 18
203 47 341 117 241 122 445 354 538 612 25 69 29 72 120 92 52 11 142 39 203
62 29 11 37 42 12 51 -18 8 -108 -15 -212 -55 -85 -31 -109 -32 -119 -1 -23
74 -72 139 -136 179 -21 13 -38 29 -38 36 0 6 27 36 60 66 73 66 141 158 170
232 70 177 -88 273 -395 241 -60 -7 -155 -21 -210 -31 -110 -22 -134 -16 -97
23 26 27 27 40 7 57 -12 10 -20 7 -44 -19z m239 -625 c0 -14 -45 -40 -94 -52
-26 -6 -27 -5 -17 15 7 11 13 21 14 21 1 0 20 7 42 15 51 18 55 18 55 1z m294
-324 c5 -8 -45 -114 -86 -181 -45 -74 -149 -200 -225 -271 -166 -155 -284
-210 -451 -210 -125 0 -183 34 -167 97 8 34 93 113 237 223 177 134 343 227
558 311 98 38 125 45 134 31z"/>
<path d="M7125 9380 c-3 -5 -36 -10 -73 -10 l-67 0 67 -38 c79 -43 118 -76
118 -97 0 -18 12 -19 28 -3 24 24 13 71 -28 116 -22 24 -41 38 -45 32z"/>
<path d="M6952 9228 c7 -7 31 -26 53 -42 74 -54 105 -88 105 -117 0 -27 1 -27
30 -17 36 12 50 35 50 80 0 48 -11 62 -36 43 -21 -16 -65 -20 -79 -6 -12 10
-124 71 -131 71 -3 0 1 -6 8 -12z"/>
<path d="M6670 9115 c0 -4 8 -15 18 -24 42 -38 83 -102 80 -123 -2 -19 -10
-23 -48 -26 -24 -2 -46 -4 -48 -6 -4 -4 121 -94 142 -102 16 -6 52 18 108 69
18 16 41 27 58 27 20 0 41 12 67 38 l38 37 -45 3 c-50 4 -72 19 -90 62 -10 23
-18 29 -41 27 -16 -1 -29 -3 -29 -5 0 -1 14 -21 30 -44 17 -22 30 -46 30 -53
0 -14 -32 -45 -48 -45 -9 0 -130 94 -204 158 -10 8 -18 12 -18 7z"/>
<path d="M3571 8883 c-29 -97 -85 -177 -283 -407 -58 -68 -45 -1 44 223 27 68
47 130 44 137 -7 17 -65 27 -95 16 -21 -8 -28 -23 -52 -126 -15 -64 -44 -168
-65 -231 -30 -94 -35 -117 -24 -130 7 -8 19 -15 26 -15 26 0 14 -28 -45 -107
-151 -205 -312 -455 -421 -658 -23 -44 -48 -86 -54 -94 -6 -8 -11 -48 -11 -90
0 -65 4 -83 28 -124 28 -47 97 -107 124 -107 24 0 26 30 3 55 -27 29 -39 80
-40 165 0 113 19 165 133 365 74 130 165 274 274 435 100 147 304 404 448 565
71 79 95 113 95 135 0 21 -53 60 -80 60 -26 0 -30 -6 -49 -67z"/>
<path d="M4432 8823 c-20 -21 -60 -79 -88 -129 -48 -86 -51 -89 -89 -92 -48
-4 -85 5 -85 21 0 6 20 52 44 101 25 48 42 94 39 102 -8 21 -52 29 -68 13 -7
-8 -32 -52 -56 -99 -24 -47 -66 -121 -93 -165 -27 -44 -58 -95 -68 -113 -24
-38 -26 -93 -5 -122 l15 -21 25 27 c14 15 49 67 77 116 l52 88 58 0 c33 0 60
-5 62 -11 2 -6 -10 -38 -26 -72 -34 -72 -37 -108 -10 -138 26 -29 76 -21 195
31 l93 40 28 -30 c37 -41 77 -40 137 4 25 19 55 44 65 55 26 28 33 27 50 -12
7 -19 26 -44 42 -56 37 -30 79 -25 168 20 141 70 302 259 221 259 -9 0 -51
-35 -93 -79 -80 -81 -174 -151 -204 -151 -29 0 -38 31 -28 101 15 108 48 188
110 270 22 29 40 59 40 66 0 15 -32 17 -46 3 -6 -6 -25 -5 -52 2 -68 17 -117
-8 -207 -105 -42 -45 -104 -122 -138 -172 -48 -69 -77 -100 -125 -132 -66 -44
-126 -63 -144 -45 -11 11 -9 16 22 97 23 61 80 168 123 231 52 78 55 98 19
122 -21 14 -24 13 -60 -25z m472 -58 c12 -33 -209 -325 -246 -325 -34 0 -14
68 33 114 20 19 28 37 27 55 -5 73 163 214 186 156z"/>
<path d="M5747 8385 c-94 -26 -151 -62 -238 -152 -105 -108 -229 -264 -311
-389 -61 -93 -88 -114 -102 -78 -5 14 -17 16 -65 11 -32 -2 -72 -12 -89 -21
-74 -38 -231 -226 -272 -325 -15 -38 -3 -92 31 -135 23 -29 46 -32 104 -11 54
19 65 18 65 -5 0 -30 -115 -247 -193 -365 -83 -126 -220 -291 -257 -310 -16
-8 -52 -15 -79 -15 -44 0 -56 5 -91 36 -49 44 -87 120 -101 202 -9 52 -8 71 6
114 9 29 25 64 35 78 36 51 -8 69 -55 23 -56 -56 -65 -81 -65 -181 0 -183 61
-308 166 -340 89 -26 152 -7 260 79 131 104 386 440 481 633 15 31 33 58 42
61 8 3 26 -6 42 -21 79 -75 268 25 349 185 29 59 33 63 58 56 15 -4 64 -10
110 -12 73 -4 83 -7 76 -21 -38 -90 -40 -111 -19 -155 24 -50 74 -77 145 -77
82 0 140 16 238 67 l82 43 23 -35 c23 -35 54 -55 87 -55 33 0 109 47 223 138
72 57 93 62 59 14 -65 -90 -20 -173 85 -158 113 15 375 193 348 236 -13 21
-44 8 -111 -43 -38 -30 -97 -71 -131 -91 -87 -54 -104 -38 -57 53 31 58 27
111 -8 136 -22 14 -22 15 -5 62 31 86 21 143 -30 173 -63 37 -164 20 -226 -38
-83 -78 -77 -179 13 -238 48 -32 45 -40 -37 -113 -61 -54 -93 -64 -93 -31 0
19 -7 28 -45 55 -19 13 -19 15 14 43 34 28 36 52 4 52 -8 0 -42 -25 -75 -55
-93 -86 -208 -135 -318 -135 -62 0 -100 65 -70 121 6 10 16 19 23 19 7 0 49
18 94 39 106 51 206 143 206 189 0 40 -28 72 -64 72 -40 0 -130 -35 -178 -70
-22 -17 -47 -30 -55 -30 -8 0 -29 -17 -48 -39 -39 -46 -103 -91 -129 -91 -88
0 -136 124 -89 229 26 56 25 61 -8 61 -39 0 -79 -21 -91 -47 -6 -14 -26 -26
-53 -34 -24 -6 -56 -18 -71 -26 -16 -8 -32 -12 -35 -8 -13 12 96 206 196 350
133 191 182 235 263 235 50 0 79 -21 98 -72 15 -39 43 -35 80 9 43 52 44 113
2 142 -33 24 -74 25 -144 6z m743 -645 c5 0 18 -10 30 -22 38 -41 16 -138 -36
-159 -50 -19 -114 33 -114 92 0 49 60 105 98 93 8 -2 18 -4 22 -4z m-1450 -39
c0 -81 -181 -351 -236 -351 -35 0 1 156 56 234 68 98 180 171 180 117z m938
-21 c2 -18 -8 -35 -35 -62 -51 -48 -113 -82 -126 -69 -22 22 107 165 143 159
8 -2 16 -14 18 -28z m-616 -41 c-4 -66 -64 -180 -132 -252 -99 -107 -139 -114
-115 -20 19 73 46 130 90 188 43 57 134 137 150 132 5 -2 9 -24 7 -48z"/>
</g>
</svg>
