<?xml version="1.0" standalone="no"?>
<!DOCTYPE svg PUBLIC "-//W3C//DTD SVG 20010904//EN"
 "http://www.w3.org/TR/2001/REC-SVG-20010904/DTD/svg10.dtd">
<svg version="1.0" xmlns="http://www.w3.org/2000/svg"
 width="1280.000000pt" height="1280.000000pt" viewBox="0 0 1280.000000 1280.000000"
 preserveAspectRatio="xMidYMid meet">
<metadata>
Created by potrace 1.14, written by Peter Selinger 2001-2017
</metadata>
<g transform="translate(0.000000,1280.000000) scale(0.100000,-0.100000)"
fill="#000000" stroke="none">
<path d="M6878 9665 c-2 -1 -39 -5 -83 -9 -103 -9 -153 -14 -185 -20 -14 -3
-43 -8 -65 -11 -38 -5 -240 -49 -277 -60 -10 -3 -27 -7 -38 -9 -33 -8 -194
-58 -205 -65 -5 -3 -17 -6 -25 -8 -8 -1 -23 -6 -35 -11 -11 -5 -72 -31 -135
-57 -63 -26 -130 -57 -147 -67 -18 -11 -33 -17 -33 -13 0 3 -7 -1 -16 -9 -8
-9 -20 -14 -25 -11 -5 4 -9 1 -9 -4 0 -6 -4 -11 -10 -11 -16 0 -308 -177 -330
-200 -3 -3 -42 -32 -87 -64 -46 -33 -83 -63 -83 -68 0 -4 -4 -8 -10 -8 -5 0
-18 -8 -28 -17 -10 -10 -45 -41 -78 -69 -128 -112 -292 -286 -402 -429 -46
-59 -92 -126 -91 -131 0 -4 -4 -10 -10 -14 -6 -3 -34 -42 -61 -86 -27 -43 -54
-84 -60 -91 -5 -7 -10 -19 -10 -27 0 -8 -4 -16 -9 -18 -11 -4 -147 -272 -166
-328 -3 -9 -18 -45 -35 -85 -14 -32 -49 -131 -55 -155 -1 -3 -4 -12 -8 -20
-10 -27 -37 -116 -41 -136 -2 -10 -9 -39 -16 -64 -7 -25 -14 -56 -16 -70 -3
-14 -7 -33 -10 -42 -6 -21 -13 -54 -20 -98 -3 -19 -7 -46 -9 -60 -17 -101 -18
-115 -31 -235 -3 -33 -7 -121 -8 -195 l-1 -135 58 -1 c33 0 57 4 58 10 0 6 2
20 3 31 2 11 6 54 10 95 6 65 17 134 41 265 12 63 67 263 91 330 14 39 27 77
29 85 16 71 213 469 236 478 5 2 9 8 9 13 0 21 167 259 181 259 5 0 8 4 7 9
-6 19 230 274 341 369 30 26 65 57 79 69 13 12 51 42 83 65 33 24 85 62 117
85 31 24 63 43 70 43 6 0 12 4 12 9 0 5 9 13 20 16 11 3 26 12 33 18 22 20
327 179 327 171 0 -3 23 7 50 21 28 14 50 22 50 19 0 -4 6 -2 13 4 10 8 170
66 212 77 6 1 17 5 25 8 18 7 136 37 165 42 11 2 54 10 95 18 41 9 94 18 117
22 23 3 57 8 75 11 18 2 63 6 100 8 37 2 70 6 75 8 13 6 309 2 393 -6 146 -13
161 -15 295 -41 44 -9 87 -17 95 -18 62 -12 96 -20 105 -26 6 -3 18 -7 28 -8
10 -2 55 -15 100 -30 45 -15 84 -28 87 -28 13 -3 58 -19 85 -30 17 -8 59 -26
95 -40 85 -35 280 -132 290 -145 3 -3 20 -12 38 -19 17 -8 32 -17 32 -22 0 -5
5 -9 10 -9 23 0 268 -177 380 -275 84 -74 243 -238 311 -321 123 -151 128
-158 141 -186 7 -16 16 -28 19 -28 3 0 21 -24 39 -52 18 -29 40 -64 49 -78 45
-71 189 -357 196 -390 1 -3 6 -16 12 -30 20 -44 62 -163 68 -190 1 -3 11 -38
24 -79 20 -64 41 -153 57 -231 2 -14 9 -47 14 -75 6 -27 13 -75 16 -105 3 -30
7 -68 9 -85 4 -27 18 -276 17 -300 -2 -81 -18 -320 -22 -320 -1 0 -3 -17 -5
-38 -2 -21 -6 -55 -10 -75 -4 -20 -9 -48 -11 -62 -4 -20 -17 -87 -30 -145 -27
-129 -103 -349 -169 -495 -31 -69 -62 -137 -68 -153 -6 -15 -15 -27 -19 -27
-4 0 -8 -5 -8 -10 0 -9 -26 -56 -113 -202 -27 -45 -129 -182 -139 -186 -4 -2
-8 -8 -8 -14 0 -9 -57 -79 -137 -168 -13 -14 -23 -28 -23 -33 0 -4 -4 -5 -10
-2 -5 3 -10 2 -10 -3 0 -8 -96 -112 -104 -112 -2 0 -28 -24 -59 -53 -70 -65
-124 -109 -148 -121 -11 -5 -19 -12 -19 -16 0 -3 -39 -33 -87 -66 -49 -32 -90
-62 -93 -65 -10 -12 -198 -118 -285 -160 -49 -24 -93 -48 -96 -52 -3 -5 -10
-8 -15 -8 -11 1 -95 -30 -109 -39 -14 -10 -89 -34 -97 -32 -5 1 -8 -3 -8 -8 0
-5 -3 -9 -7 -8 -5 1 -35 -7 -68 -17 -33 -11 -64 -20 -70 -20 -5 -1 -36 -9 -67
-19 -56 -17 -93 -26 -133 -31 -11 -2 -20 -4 -20 -5 0 -2 -35 -9 -75 -14 -19
-3 -35 -5 -35 -6 0 -1 -9 -3 -20 -4 -11 -2 -45 -7 -75 -11 -95 -13 -112 -14
-228 -19 -63 -2 -116 -7 -120 -10 -3 -4 -7 -19 -8 -35 -2 -25 2 -30 28 -33 39
-6 388 -1 448 6 24 3 65 8 90 11 25 3 59 7 75 10 17 2 47 7 67 9 21 3 57 10
80 15 24 6 57 12 73 15 27 5 133 32 160 40 6 1 30 8 55 15 25 7 52 15 60 18 8
3 20 7 26 8 34 8 202 72 294 113 196 87 388 194 543 304 37 26 72 48 78 48 5
0 7 5 4 10 -3 6 -2 10 4 10 9 0 148 110 220 175 90 81 239 236 311 325 25 30
47 57 50 60 27 25 214 303 256 380 10 19 21 37 24 40 12 12 105 204 103 212
-2 4 1 8 6 8 8 0 18 24 27 64 3 11 12 28 21 38 9 10 13 18 9 18 -3 0 0 12 7
28 15 28 90 246 103 297 10 41 11 45 14 48 1 1 3 10 6 20 2 9 6 23 7 30 2 6 8
30 12 52 12 55 12 55 15 58 1 1 3 11 4 22 5 33 22 133 31 175 5 26 13 101 19
182 2 25 6 50 8 55 6 10 1 462 -6 518 -2 22 -7 65 -11 95 -3 30 -8 64 -9 75
-2 11 -7 36 -10 55 -10 60 -16 89 -22 118 -4 15 -6 34 -7 42 0 8 -4 21 -10 28
-5 6 -7 12 -4 12 3 0 -3 30 -14 68 -11 37 -21 77 -23 89 -5 24 -61 195 -75
228 -5 11 -27 65 -49 120 -60 148 -178 374 -249 477 -18 26 -33 51 -33 57 0 6
-4 11 -10 11 -5 0 -10 5 -10 10 0 6 -5 16 -10 23 -37 44 -50 61 -50 66 0 3
-14 22 -30 41 -16 19 -33 40 -37 45 -110 144 -297 338 -445 459 -51 42 -104
86 -118 98 -14 11 -43 32 -65 46 -22 14 -42 28 -45 32 -9 12 -158 107 -189
121 -17 8 -31 17 -31 20 0 3 -36 23 -80 45 -44 21 -80 42 -80 46 0 5 -5 8 -11
8 -6 0 -41 14 -77 31 -65 30 -112 51 -122 54 -3 1 -23 9 -45 19 -57 24 -307
108 -325 109 -8 0 -21 4 -27 10 -7 5 -13 7 -13 4 0 -3 -15 -1 -32 4 -18 6 -46
13 -63 15 -16 3 -43 9 -60 14 -16 5 -46 12 -65 14 -19 3 -48 8 -65 10 -83 14
-133 21 -235 32 -45 5 -467 13 -472 9z"/>
<path d="M7906 8652 c-46 -10 -178 -110 -270 -206 -112 -116 -199 -249 -265
-404 -23 -57 -29 -60 -36 -22 -7 35 -24 48 -38 30 -7 -8 -32 -28 -56 -44 -77
-50 -163 -158 -142 -179 7 -7 14 -1 23 19 12 27 35 57 83 109 11 11 36 31 57
43 34 21 37 22 53 5 17 -16 16 -18 -9 -38 -64 -48 -135 -119 -161 -159 -15
-24 -33 -43 -39 -42 -20 4 -56 31 -56 42 0 11 40 100 61 134 5 8 13 24 18 35
13 27 67 85 80 85 6 0 11 4 11 8 0 4 14 16 31 26 30 17 30 17 50 -5 10 -12 19
-20 19 -17 0 24 -108 261 -122 266 -4 2 -8 8 -8 14 0 6 -25 49 -56 95 -60 90
-59 90 -127 64 -39 -15 -76 -80 -92 -160 -2 -13 -6 -30 -9 -39 -3 -9 -8 -39
-12 -67 -3 -27 -8 -59 -10 -70 -18 -82 -23 -366 -10 -475 4 -30 7 -62 7 -70 1
-8 8 -51 16 -95 25 -134 25 -135 2 -135 -52 0 -136 -69 -153 -126 -18 -58 -15
-83 12 -104 32 -25 35 -43 17 -87 -13 -31 -13 -33 5 -33 12 0 17 -5 14 -13 -3
-8 6 -25 20 -38 14 -13 26 -30 26 -38 0 -9 6 -11 18 -6 35 15 60 12 87 -9 38
-31 38 -86 0 -184 -8 -20 -23 -70 -34 -111 -18 -64 -19 -77 -7 -106 9 -21 25
-36 45 -43 17 -6 31 -8 31 -4 0 7 23 -38 35 -73 7 -17 9 -96 6 -153 -1 -10
-14 -12 -53 -7 -29 4 -89 8 -133 11 -168 8 -214 12 -227 20 -52 34 -149 43
-218 22 -42 -13 -57 -34 -17 -24 l22 6 -22 -11 c-31 -16 -29 -25 8 -38 40 -14
49 -14 49 0 0 6 -7 9 -15 5 -8 -3 -15 -1 -15 4 0 6 16 8 38 5 20 -3 52 -7 70
-9 18 -2 38 -9 45 -14 7 -6 46 -10 87 -10 64 0 112 -7 190 -28 144 -37 244
-45 266 -21 12 12 24 66 26 118 2 38 16 28 73 -52 28 -39 57 -78 65 -87 9 -9
15 -23 14 -29 -1 -7 -2 -17 -3 -23 0 -5 -22 -24 -48 -42 -68 -46 -142 -127
-153 -168 -13 -48 -13 -55 5 -40 8 7 12 17 8 23 -3 5 -1 7 5 4 5 -4 8 -17 5
-30 -4 -21 -4 -22 11 -3 9 11 16 16 16 11 0 -5 7 0 16 11 8 10 13 13 9 7 -3
-7 -1 -13 4 -13 6 0 12 7 12 15 1 8 2 18 4 23 1 4 5 19 9 33 4 14 20 33 36 43
16 9 46 32 66 52 l37 35 13 -38 c7 -20 11 -40 8 -45 -17 -28 -25 -317 -10
-403 3 -22 8 -51 10 -65 18 -106 27 -131 63 -178 39 -51 61 -55 129 -22 32 15
62 26 67 23 4 -2 7 1 7 6 0 6 3 10 8 9 4 -1 25 6 46 15 22 10 51 20 65 24 14
3 31 9 36 13 6 4 33 15 61 25 l52 18 133 -60 c162 -74 257 -112 274 -113 3 0
18 -6 33 -14 27 -14 200 -74 234 -81 9 -2 26 -9 38 -15 12 -6 24 -9 27 -6 3 3
18 -1 34 -10 16 -8 30 -14 31 -13 7 5 55 -15 72 -30 10 -9 19 -15 20 -13 0 2
15 -2 31 -9 69 -27 204 -40 270 -25 11 2 23 5 28 5 20 2 3 21 -19 21 -14 0
-39 9 -55 20 -15 12 -46 23 -68 25 -39 4 -81 23 -81 36 0 10 -70 79 -80 79 -5
0 -22 -11 -38 -25 -27 -23 -32 -24 -45 -10 -9 8 -20 15 -25 15 -6 0 -12 4 -14
8 -4 10 -121 92 -131 92 -9 0 -69 41 -78 53 -3 5 -10 9 -15 9 -5 -1 -62 26
-126 58 -65 33 -118 57 -118 54 0 -4 -6 -1 -13 5 -12 9 -40 18 -70 20 -21 2 7
20 50 31 27 7 53 16 58 20 6 3 30 12 54 19 25 7 54 19 65 26 12 8 25 14 29 14
4 0 41 16 82 36 86 43 197 141 175 155 -8 5 -22 3 -34 -6 -11 -8 -28 -14 -37
-14 -10 0 -39 -11 -66 -25 -56 -29 -93 -36 -110 -23 -14 11 -76 13 -92 4 -5
-4 -9 -25 -9 -47 0 -22 -1 -42 -3 -44 -2 -2 -31 -6 -64 -9 -33 -3 -76 -8 -95
-10 -19 -3 -53 -8 -75 -10 -22 -3 -51 -8 -65 -11 -78 -16 -79 -16 -94 14 -9
16 -18 43 -21 60 -3 17 -12 52 -21 78 -9 25 -18 58 -21 72 -2 14 -9 31 -15 38
-6 7 -8 13 -5 13 3 0 -8 37 -25 83 -16 45 -30 88 -32 95 -1 8 -14 29 -29 47
-15 19 -27 36 -27 39 0 3 -11 16 -25 30 -14 14 -25 22 -25 19 0 -3 -8 4 -19
15 -10 12 -21 19 -25 15 -3 -3 -6 -2 -6 4 0 6 -9 13 -19 16 -11 2 -19 12 -17
20 2 18 47 67 61 67 6 0 21 -18 35 -40 14 -22 28 -40 32 -40 5 0 8 -6 8 -13 0
-7 11 -25 25 -40 14 -15 22 -27 18 -27 -4 0 -3 -4 2 -8 6 -4 32 -35 59 -69 42
-55 92 -90 119 -84 5 1 25 -11 45 -27 99 -77 131 -93 154 -81 12 7 30 21 40
33 9 12 17 17 18 11 0 -5 18 10 39 33 22 23 42 38 45 33 6 -10 83 16 102 34 6
6 23 29 37 52 18 29 39 46 70 58 53 20 83 67 72 114 -3 17 -11 33 -16 36 -5 4
2 26 16 51 36 64 33 94 -15 144 -28 29 -38 48 -36 63 3 12 5 25 5 29 1 4 8 14
17 22 32 33 21 72 -31 110 -69 50 -75 60 -70 108 4 35 1 48 -15 66 -11 12 -24
22 -28 23 -23 2 -54 10 -114 29 -58 19 -68 26 -73 50 -9 41 -26 50 -97 55
l-63 3 40 -13 c22 -7 47 -14 57 -14 9 -1 21 -15 27 -33 10 -28 9 -35 -6 -45
-9 -7 -26 -13 -37 -13 -10 0 -16 -3 -13 -6 4 -4 39 -8 79 -10 78 -4 87 -5 134
-23 35 -13 72 -58 84 -102 7 -24 5 -31 -12 -40 -30 -16 -131 -20 -140 -6 -6 9
-8 9 -8 -1 0 -7 -4 -11 -9 -7 -15 9 -90 17 -170 19 -67 1 -75 4 -95 29 -13 16
-39 34 -60 41 -42 15 -38 21 34 51 71 30 69 35 -13 30 -63 -3 -77 -2 -77 10 0
8 4 15 9 15 17 0 21 33 6 50 -15 17 -13 19 30 36 42 15 64 20 118 23 9 1 17 4
17 9 0 4 -43 6 -95 5 -52 -1 -95 0 -95 2 0 1 30 18 66 36 61 30 169 103 202
135 23 23 43 86 42 128 -3 58 -2 61 19 85 14 16 17 32 14 59 -3 20 -5 66 -5
101 0 44 -6 76 -20 102 -16 32 -19 49 -13 96 9 76 8 103 -7 121 -8 9 -13 62
-15 151 -5 230 -11 375 -15 402 -17 95 -99 159 -182 141z m43 -45 c-14 -12
-38 -31 -53 -42 -16 -11 -42 -33 -57 -49 -16 -16 -29 -26 -29 -23 0 3 -18 -12
-40 -34 -22 -22 -40 -45 -40 -52 0 -6 11 1 25 16 33 34 129 107 142 107 6 0
16 7 23 15 7 8 16 12 21 9 5 -3 9 -2 9 3 0 11 49 33 72 33 30 0 20 -27 -17
-44 -58 -28 -177 -111 -225 -158 -55 -53 -121 -128 -114 -128 3 0 -6 -15 -19
-32 -14 -18 -41 -67 -62 -108 -20 -41 -47 -89 -60 -106 -30 -39 -105 -120
-106 -114 0 3 -2 13 -4 23 -2 9 1 17 6 17 6 0 8 4 5 9 -3 5 12 53 35 108 22
54 43 106 46 116 3 9 10 17 15 17 5 0 7 4 4 9 -3 5 1 14 9 21 8 7 15 17 15 22
0 44 221 298 260 298 6 0 10 4 10 8 0 9 135 82 149 82 3 0 -6 -11 -20 -23z
m106 -92 c0 -10 -9 -23 -20 -29 -11 -6 -23 -15 -27 -21 -4 -5 -8 -6 -8 -2 0 4
-20 -6 -45 -23 -25 -17 -45 -28 -45 -25 0 3 -8 -3 -19 -12 -15 -15 -64 -56
-110 -93 -3 -3 -19 -21 -36 -40 -25 -29 -26 -32 -5 -15 14 11 32 27 40 35 45
45 206 150 229 150 6 0 11 5 11 12 0 6 3 8 7 5 3 -4 12 -2 20 5 10 8 17 8 26
-1 9 -9 7 -16 -13 -31 -14 -11 -30 -20 -37 -20 -6 0 -18 -6 -25 -13 -7 -7 -38
-28 -68 -46 -72 -44 -214 -146 -259 -187 -80 -73 -79 -73 -59 -29 6 14 16 25
21 25 6 0 7 3 4 6 -5 5 43 84 63 104 3 3 18 23 34 44 16 22 43 53 60 71 34 34
168 125 185 125 6 0 11 5 11 11 0 5 4 8 8 5 4 -2 14 -1 22 4 21 13 35 7 35
-15z m-961 -67 l33 -31 -38 -37 c-35 -34 -55 -68 -64 -110 -2 -8 -8 -36 -14
-63 -17 -71 -22 -115 -23 -190 -1 -100 -30 -184 -52 -148 -7 11 -18 137 -18
206 0 45 3 74 17 193 2 18 7 38 12 45 4 6 8 18 9 25 4 25 87 142 101 142 2 0
18 -14 37 -32z m65 -81 c8 -10 2 -21 -25 -48 -41 -39 -79 -101 -88 -144 -6
-28 -5 -28 18 10 14 22 32 49 41 60 8 10 15 23 15 29 0 5 3 6 6 3 4 -4 15 3
25 15 11 11 19 17 19 12 0 -5 5 -2 10 6 7 12 12 12 21 3 10 -10 1 -23 -39 -61
-54 -51 -113 -131 -138 -186 -14 -30 -15 -29 -10 29 5 59 11 98 21 142 3 13 5
25 5 28 -1 16 34 67 62 89 38 30 42 31 57 13z m909 -10 c2 -11 -12 -23 -45
-39 -26 -12 -51 -27 -55 -32 -4 -6 -8 -8 -8 -4 0 9 -103 -52 -108 -64 -2 -4
-9 -8 -16 -8 -7 0 -21 -8 -32 -18 -10 -10 -26 -23 -35 -28 -57 -33 -238 -204
-216 -204 4 0 19 12 35 28 48 44 141 124 187 159 75 58 247 153 278 153 11 0
17 -8 17 -24 0 -18 -8 -27 -32 -35 -36 -13 -210 -109 -218 -121 -3 -4 -15 -10
-27 -14 -13 -4 -23 -11 -23 -16 0 -5 -11 -15 -24 -22 -27 -15 -89 -63 -123
-96 -12 -13 -23 -20 -23 -17 0 3 -16 -11 -36 -32 -30 -31 -43 -37 -80 -38 -24
0 -44 1 -44 3 0 1 15 20 34 40 19 20 45 51 57 67 56 72 287 265 318 265 6 0
11 4 11 8 0 5 10 14 23 20 12 6 54 29 92 51 74 42 88 45 93 18z m-849 -135 c6
-11 6 -24 0 -33 -5 -7 -9 -10 -9 -4 0 11 -90 -86 -90 -98 0 -5 -6 -15 -12 -22
-30 -33 -38 -45 -38 -54 0 -6 -9 -27 -21 -48 -15 -27 -17 -33 -5 -24 9 7 16
20 16 27 0 8 4 14 8 14 5 0 14 11 20 25 13 29 17 34 69 91 53 57 92 82 103 64
9 -15 -5 -50 -20 -50 -15 0 -114 -102 -146 -150 -17 -25 -36 -61 -44 -80 -19
-49 -28 -59 -49 -53 -20 5 -21 18 -4 78 7 22 14 54 16 71 5 31 22 68 45 92 7
7 10 18 7 23 -4 5 -2 9 2 9 5 0 17 14 28 32 20 34 93 108 106 108 5 0 13 -8
18 -18z m865 3 c7 -19 -48 -72 -100 -95 -100 -44 -155 -73 -212 -109 -70 -46
-153 -121 -133 -121 8 0 26 13 42 29 15 16 30 27 33 23 3 -3 6 0 6 6 0 7 7 12
15 12 8 0 15 4 15 8 0 8 63 48 69 43 2 -1 7 2 10 7 7 11 129 75 134 70 2 -2
10 2 18 8 8 7 28 15 46 18 25 6 31 4 29 -8 -3 -21 -13 -29 -66 -51 -25 -10
-51 -23 -59 -29 -7 -6 -19 -11 -27 -12 -7 -1 -27 -12 -43 -23 -16 -12 -32 -21
-36 -21 -9 0 -121 -86 -172 -132 -49 -44 -54 -45 -71 -18 -7 12 -17 18 -21 15
-5 -3 -11 1 -14 7 -2 7 -8 10 -12 6 -4 -4 7 -19 25 -34 30 -26 32 -30 26 -76
-4 -27 -11 -59 -15 -71 -5 -12 -15 -41 -22 -65 l-13 -43 -13 25 c-12 23 -11
31 7 65 22 44 26 71 10 71 -6 0 -9 -3 -8 -7 4 -13 -24 -73 -33 -73 -5 0 -14
11 -19 24 -7 19 -4 35 15 70 14 26 20 48 15 51 -6 3 -15 -5 -21 -19 -17 -36
-40 -41 -61 -14 -18 24 -34 85 -25 94 3 3 32 6 66 7 56 2 63 5 96 40 19 20 37
37 40 37 3 0 17 11 31 25 14 14 51 44 82 68 31 23 59 44 62 47 3 3 19 12 35
20 17 8 35 20 40 26 6 6 35 24 65 40 30 16 58 33 62 39 4 5 8 6 8 2 0 -4 10
-2 23 5 12 7 25 12 29 13 3 0 10 3 14 8 11 11 21 8 28 -8z m-12 -167 c3 -7 1
-27 -3 -43 -8 -27 -36 -48 -84 -60 -74 -19 -169 -64 -235 -113 -49 -36 -100
-85 -100 -97 0 -5 18 9 40 30 22 21 40 36 40 32 0 -3 11 4 24 16 39 36 49 42
106 69 53 25 117 44 133 40 4 -1 7 3 7 9 0 5 5 7 10 4 6 -3 10 -1 10 6 0 7 3
9 6 6 4 -3 16 -2 26 4 22 12 32 5 42 -27 6 -18 0 -24 -33 -38 -22 -8 -55 -18
-73 -21 -18 -3 -34 -10 -36 -15 -2 -5 -9 -7 -16 -4 -8 3 -40 -12 -71 -33 -32
-21 -65 -42 -74 -48 -30 -18 -116 -79 -121 -85 -10 -12 -60 -40 -70 -40 -12 0
-12 65 -1 85 3 6 6 12 7 15 10 34 24 51 65 85 64 54 102 84 114 93 23 17 264
140 276 141 4 1 9 -5 11 -11z m-754 -125 c-34 -70 -48 -93 -77 -123 -49 -51
-93 -118 -82 -125 5 -3 12 3 16 12 8 26 63 88 71 81 3 -4 -8 -34 -25 -69 -17
-34 -28 -65 -26 -69 3 -4 -4 -15 -15 -25 -19 -17 -20 -17 -26 1 -3 11 -10 28
-16 38 -6 11 -10 37 -10 59 1 55 63 140 153 210 24 17 43 23 37 10z m789 -84
c-3 -17 -47 -59 -47 -45 0 3 -29 -6 -65 -19 -36 -14 -65 -21 -65 -17 0 4 -4 2
-8 -3 -4 -6 -32 -21 -62 -35 -66 -30 -184 -100 -188 -111 -2 -5 -9 -9 -17 -9
-15 0 -37 -24 -30 -32 3 -3 41 18 85 47 43 29 95 59 114 66 20 7 36 17 36 22
0 4 5 5 10 2 6 -4 16 -2 23 3 11 9 117 53 142 58 74 17 70 18 72 -20 2 -32 -1
-35 -30 -41 -18 -4 -36 -11 -42 -15 -5 -4 -17 -8 -25 -8 -16 -1 -55 -9 -55
-12 0 -1 -9 -3 -21 -5 -33 -7 -114 -43 -130 -60 -9 -8 -22 -15 -30 -15 -8 0
-14 -4 -14 -10 0 -5 -7 -10 -15 -10 -8 0 -15 -4 -15 -10 0 -5 -6 -10 -12 -10
-7 0 -39 -16 -70 -35 -78 -46 -94 -48 -90 -10 3 40 31 115 42 115 5 0 29 14
52 30 100 71 187 126 239 152 57 29 198 70 211 61 4 -2 6 -13 5 -24z m-1107
-44 c17 1 90 -73 90 -92 0 -7 5 -13 10 -13 6 0 10 -8 10 -18 0 -10 4 -22 9
-27 6 -6 11 -21 13 -35 2 -14 6 -29 10 -35 16 -26 -7 -235 -26 -235 -3 0 -5
66 -4 146 0 95 -4 150 -11 157 -12 12 -16 -53 -12 -195 1 -42 -2 -68 -9 -68
-5 0 -10 12 -11 28 0 15 -2 52 -4 82 -2 30 -4 99 -4 152 -1 77 -4 96 -14 92
-15 -5 -16 -158 -2 -289 6 -53 5 -67 -4 -59 -7 6 -14 26 -17 45 -3 19 -7 45
-10 59 -2 14 -6 59 -9 100 -2 41 -4 78 -4 83 -1 4 -5 7 -10 7 -10 0 -7 -192 3
-208 10 -17 16 -72 7 -72 -12 0 -23 29 -15 41 3 5 0 9 -7 9 -6 0 -9 -8 -6 -19
3 -14 1 -18 -10 -14 -7 3 -12 8 -9 10 2 2 0 19 -5 36 -20 69 -22 193 -4 272
12 54 20 74 28 67 7 -4 19 -8 27 -7z m1120 -134 c0 -27 -34 -70 -46 -59 -3 4
-17 0 -31 -7 -15 -8 -30 -12 -35 -9 -4 3 -8 0 -8 -6 0 -6 -4 -9 -9 -6 -4 3
-41 -3 -80 -14 -40 -11 -78 -21 -84 -23 -7 -1 -15 -5 -18 -10 -3 -4 -15 -9
-27 -12 -11 -2 -31 -9 -44 -16 -13 -8 -25 -14 -28 -14 -14 -2 -96 -49 -103
-59 -5 -7 -12 -5 -22 8 -13 17 -11 20 23 39 20 11 68 37 105 58 38 22 73 39
77 39 5 0 10 4 12 9 2 6 17 12 35 15 17 3 58 14 92 25 33 10 63 16 66 13 3 -3
5 -1 5 4 0 6 23 18 50 28 28 10 50 22 50 28 0 5 5 6 10 3 6 -3 10 -19 10 -34z
m-9 -80 c4 0 6 -11 5 -23 -1 -23 -34 -51 -48 -42 -5 3 -8 0 -8 -7 0 -7 -3 -10
-6 -7 -3 4 -20 0 -39 -8 -18 -7 -48 -16 -66 -19 -18 -3 -39 -11 -46 -17 -7 -6
-13 -7 -13 -4 0 4 -6 4 -12 -1 -7 -4 -17 -8 -23 -9 -71 -15 -109 -26 -122 -37
-7 -5 -13 -7 -13 -4 0 3 -25 -8 -55 -23 l-55 -28 0 29 c0 22 7 32 30 44 17 9
30 12 30 8 0 -5 4 -2 9 5 4 7 14 15 22 16 8 2 31 10 51 20 21 9 42 16 48 16 5
0 10 4 10 8 0 5 6 9 13 10 6 0 23 3 37 7 14 3 30 7 35 9 46 11 165 52 165 57
0 5 26 5 51 0z m2 -134 c-8 -14 -81 -44 -113 -46 -11 0 -20 -5 -20 -10 0 -8
21 -7 75 3 22 4 35 -10 35 -36 0 -25 -73 -43 -205 -53 -33 -2 -69 -6 -80 -9
-86 -22 -114 -32 -142 -47 -32 -18 -43 -16 -43 8 0 24 250 116 313 115 9 -1
17 3 17 8 0 21 -226 -41 -311 -86 -24 -12 -28 -12 -33 2 -14 38 -9 42 137 100
31 12 57 20 57 18 0 -3 6 -2 12 3 7 4 26 8 41 9 16 2 36 6 45 10 22 9 39 14
102 28 19 5 40 11 45 14 6 4 16 7 24 9 7 1 19 7 25 13 8 8 12 4 17 -17 3 -15
4 -31 2 -36z m-552 -63 c27 -24 12 -52 -33 -65 -22 -5 -42 -8 -45 -5 -8 8 25
74 40 79 19 8 19 8 38 -9z m504 -96 c3 -3 -6 -16 -20 -30 -24 -24 -41 -28
-117 -29 -25 0 -22 -15 3 -22 17 -5 19 -9 10 -25 -6 -11 -24 -23 -41 -27 -16
-4 -32 -11 -35 -16 -4 -5 -15 -9 -26 -9 -10 0 -19 -4 -19 -10 0 -5 -3 -9 -7
-8 -5 2 -21 -2 -38 -9 -30 -11 -53 -19 -67 -22 -4 -1 -23 -8 -41 -16 -66 -27
-90 28 -29 67 87 55 149 78 220 79 23 0 42 4 42 9 0 9 -68 19 -75 11 -4 -4
-51 -12 -82 -14 -7 0 -13 -4 -13 -9 0 -4 -6 -8 -14 -8 -7 0 -26 -7 -42 -14
-30 -16 -44 -13 -44 9 0 13 69 52 109 60 50 11 60 14 92 23 19 5 44 7 57 6 12
-2 22 0 22 4 0 8 147 9 155 0z m192 -543 c13 -3 35 -7 49 -10 41 -9 158 -58
166 -69 4 -6 5 -20 3 -31 -2 -11 -4 -26 -4 -33 -2 -28 -88 -48 -120 -27 -5 3
-12 1 -15 -4 -4 -5 -24 -4 -50 4 -24 8 -57 16 -73 18 -43 7 -212 83 -214 96 0
3 -2 16 -5 28 -4 26 7 35 56 43 32 5 151 -4 207 -15z m-192 -144 c11 -7 28
-29 36 -50 l16 -36 11 25 c8 21 7 28 -11 42 l-22 18 24 0 c22 0 60 -10 116
-30 65 -24 196 -94 229 -123 47 -42 53 -76 20 -112 -31 -33 -61 -29 -134 17
-30 19 -92 54 -137 78 -51 28 -84 52 -88 64 -5 20 -6 20 -19 4 -14 -19 -16
-18 -141 50 -56 31 -66 67 -22 74 33 5 99 -7 122 -21z m-138 -82 c43 -23 80
-45 81 -50 2 -5 8 -9 14 -9 10 0 122 -84 165 -125 27 -24 35 -63 19 -92 -11
-21 -12 -20 -71 24 -33 24 -71 54 -85 66 -14 12 -54 46 -90 76 -36 31 -78 68
-95 83 -16 15 -33 28 -37 28 -5 0 -8 9 -8 20 0 29 20 25 107 -21z m-627 11 c0
-5 4 -10 10 -10 9 0 32 -17 64 -45 6 -6 34 -26 63 -44 59 -38 70 -56 48 -77
-8 -9 -15 -19 -15 -24 0 -4 -7 -11 -15 -14 -20 -7 -95 61 -137 126 -33 51 -47
98 -28 98 5 0 10 -4 10 -10z m530 -60 c85 -57 87 -58 151 -108 199 -153 267
-238 226 -279 -19 -19 -53 -12 -88 19 -15 13 -41 34 -59 48 -87 67 -309 273
-311 289 0 3 -2 15 -4 25 -9 46 22 47 85 6z m372 -59 c15 -8 37 -22 47 -33 11
-10 23 -18 25 -18 3 0 14 -6 23 -14 10 -8 44 -36 76 -61 53 -43 58 -50 52 -77
-4 -17 -16 -39 -28 -51 -27 -27 -88 -28 -116 -3 -30 28 -54 98 -48 145 5 43
-9 71 -50 104 -13 10 -23 24 -23 30 0 8 3 8 8 2 4 -6 19 -16 34 -24z m-416
-68 c24 -16 44 -31 44 -35 0 -5 5 -8 10 -8 18 0 157 -146 179 -188 14 -26 14
-62 1 -62 -6 0 -47 39 -93 86 -45 47 -110 115 -144 151 -35 36 -63 69 -63 74
0 16 22 10 66 -18z m131 -220 c35 -38 66 -73 70 -78 5 -4 -1 -4 -12 0 -11 5
-39 10 -63 11 -36 2 -49 8 -78 41 -62 68 -126 198 -107 217 6 5 88 -77 190
-191z m-271 -425 c4 -10 10 -18 15 -18 5 0 9 -4 9 -10 0 -5 15 -31 34 -58 l35
-47 -65 -29 c-36 -16 -88 -46 -116 -67 -28 -21 -55 -36 -59 -33 -11 6 -3 54
22 141 27 92 28 99 35 168 4 33 9 64 11 68 5 9 68 -83 79 -115z"/>
<path d="M7664 8337 c-28 -40 -60 -85 -70 -102 -10 -16 -21 -32 -24 -35 -12
-12 -30 -50 -23 -50 7 0 27 29 69 101 16 28 47 70 67 91 9 10 14 18 10 18 -5
0 0 7 11 15 10 7 16 18 15 24 -2 5 -27 -22 -55 -62z"/>
<path d="M7519 8118 c-29 -52 -70 -142 -60 -133 15 15 82 147 77 152 -2 3 -10
-6 -17 -19z"/>
<path d="M6960 7490 c0 -11 4 -20 9 -20 5 0 7 9 4 20 -3 11 -7 20 -9 20 -2 0
-4 -9 -4 -20z"/>
<path d="M5249 7134 c-89 -14 -134 -22 -134 -24 0 -1 -9 -4 -20 -6 -80 -18
-129 -37 -237 -88 -43 -20 -81 -37 -85 -37 -5 0 -12 -7 -16 -15 -4 -8 -14 -14
-20 -14 -28 0 -120 -104 -144 -162 -8 -21 -18 -38 -22 -38 -8 0 -10 -13 -15
-116 -3 -45 -1 -97 4 -115 5 -19 23 -95 41 -169 17 -74 41 -153 52 -175 11
-22 19 -41 18 -43 -1 -1 3 -27 9 -58 25 -117 3 -264 -55 -377 -26 -49 -100
-148 -118 -155 -4 -2 -21 -16 -37 -30 -36 -33 -98 -67 -106 -59 -15 14 35 178
71 237 12 19 22 37 21 40 -4 21 152 141 181 140 5 0 8 12 8 28 0 25 -3 27 -35
25 -51 -3 -60 -5 -60 -13 0 -4 -14 -13 -31 -20 -76 -32 -219 -212 -282 -355
-38 -88 -40 -138 -6 -174 18 -19 29 -22 63 -18 23 2 52 9 66 15 14 5 28 10 33
11 4 0 13 5 20 11 6 5 39 28 72 50 33 21 76 54 95 73 36 34 100 106 98 110 -1
1 11 22 26 46 75 118 110 243 109 386 0 95 -9 145 -45 245 -31 91 -34 98 -48
175 -6 28 -13 61 -16 75 -3 14 -7 63 -9 110 -2 71 1 93 19 131 36 78 80 123
148 155 35 15 65 29 68 29 3 1 12 5 20 8 18 7 117 35 151 43 72 16 271 22 339
11 19 -4 52 -9 73 -12 52 -9 101 -30 132 -59 28 -26 69 -119 58 -130 -4 -4 -8
-21 -9 -38 -2 -17 -7 -35 -12 -40 -26 -26 20 -77 48 -55 35 28 89 177 84 234
-7 87 -140 203 -236 206 -26 1 -48 4 -48 7 0 10 -197 6 -281 -6z"/>
<path d="M2513 6721 c-59 -79 -65 -128 -22 -193 33 -50 85 -72 151 -64 29 4
67 9 83 11 28 4 43 6 105 20 30 7 62 14 93 19 12 2 78 20 147 39 135 38 172
38 212 4 52 -45 64 -107 33 -167 -41 -81 -213 -271 -257 -286 -10 -3 -18 -9
-18 -13 0 -19 -53 -28 -153 -25 -83 3 -115 0 -138 -11 -16 -9 -29 -13 -29 -10
0 14 -108 -55 -152 -97 -43 -41 -48 -51 -46 -83 3 -49 51 -87 114 -91 24 -1
46 2 49 7 4 5 14 9 24 9 18 0 216 96 241 117 69 59 81 65 107 58 57 -14 123
-111 123 -181 0 -66 -10 -82 -69 -104 -412 -158 -739 -310 -856 -396 -80 -59
-142 -122 -212 -216 -45 -58 -49 -69 -48 -114 3 -90 51 -166 133 -208 30 -15
159 -19 168 -5 3 5 9 7 14 4 4 -3 48 7 96 21 49 14 94 27 99 29 49 12 213 95
283 142 35 24 65 43 67 43 21 0 255 236 295 298 18 28 36 52 39 52 3 0 12 15
20 33 8 17 17 34 21 37 5 5 73 138 76 150 1 5 18 50 31 80 3 8 5 20 4 27 -2
14 34 36 69 41 14 2 49 10 79 19 29 8 59 16 65 17 6 1 16 5 22 8 6 4 21 9 35
11 30 6 110 37 127 50 16 13 15 20 -7 44 -20 21 -20 21 -87 2 -83 -23 -179
-55 -219 -74 -16 -7 -42 -16 -56 -20 -23 -6 -28 -2 -37 23 -6 17 -8 33 -5 36
4 3 1 6 -5 6 -6 0 -13 14 -17 30 -4 17 -11 30 -17 30 -6 0 -9 3 -5 6 7 7 -69
85 -108 110 -61 39 -65 44 -44 65 11 11 22 19 27 19 16 0 152 150 181 201 66
112 75 135 74 189 -2 97 -20 131 -87 164 -138 67 -314 77 -546 31 -14 -3 -41
-7 -60 -10 -19 -3 -46 -7 -60 -10 -14 -3 -36 -8 -50 -11 -14 -2 -35 -6 -47 -9
-15 -4 -23 -1 -23 7 1 18 25 48 39 48 11 0 15 13 11 40 -3 20 -5 22 -34 25
-16 2 -30 -5 -43 -24z m293 -750 c-7 -11 -62 -40 -91 -48 -69 -17 -71 -17 -56
1 19 23 47 37 101 51 48 13 56 12 46 -4z m344 -383 c0 -36 -184 -337 -232
-379 -10 -9 -18 -19 -18 -23 0 -9 -150 -157 -206 -204 -90 -76 -207 -142 -276
-156 -13 -3 -43 -9 -68 -14 -25 -5 -84 -7 -130 -5 -118 6 -120 6 -120 15 0 4
-6 8 -13 8 -16 0 -35 33 -41 71 -3 17 4 34 22 55 59 65 300 264 320 264 6 0
12 3 14 8 16 35 371 237 508 287 3 1 21 8 40 16 19 7 38 12 43 11 4 -1 7 3 7
8 0 6 10 10 23 10 13 0 28 5 35 12 7 7 12 9 12 6 0 -4 11 -1 25 6 27 14 55 17
55 4z"/>
<path d="M4278 6082 c-23 -3 -28 -10 -38 -50 -6 -26 -12 -52 -13 -57 -6 -24
-61 -131 -71 -137 -6 -4 -8 -8 -4 -8 9 0 -10 -23 -60 -78 -17 -19 -44 -51 -60
-70 -15 -19 -37 -46 -50 -61 -13 -14 -34 -42 -47 -61 -43 -63 -62 -83 -73 -76
-10 6 -8 13 24 101 4 11 8 26 10 33 1 8 6 21 10 30 4 9 8 24 10 33 2 8 10 29
19 45 8 16 15 33 15 37 0 8 27 72 55 130 29 59 -10 79 -127 69 -15 -2 -28 -25
-34 -62 -3 -21 -13 -70 -20 -100 -3 -14 -6 -27 -6 -30 0 -3 -7 -27 -15 -54 -8
-27 -16 -57 -18 -65 -2 -9 -8 -28 -14 -43 -6 -16 -8 -28 -5 -28 4 0 0 -7 -7
-17 -8 -9 -13 -19 -13 -22 2 -8 -1 -18 -25 -85 -20 -55 -20 -60 -5 -77 10 -11
25 -19 34 -19 9 0 19 -3 22 -6 7 -7 -42 -84 -54 -84 -4 0 -8 -6 -8 -14 0 -8
-4 -16 -8 -18 -4 -1 -33 -39 -64 -83 -32 -44 -62 -85 -68 -92 -5 -7 -10 -16
-10 -22 0 -5 -3 -11 -7 -13 -9 -3 -149 -213 -177 -263 -9 -16 -25 -43 -35 -60
-46 -73 -155 -266 -188 -332 -73 -147 -42 -280 88 -383 59 -46 81 -50 97 -15
10 22 9 27 -14 42 -29 19 -44 49 -52 108 -8 52 -7 150 2 200 4 22 8 48 9 58 1
9 5 17 9 17 4 0 8 8 9 18 0 9 18 49 40 87 21 39 43 80 49 93 5 13 17 30 25 38
8 9 15 22 15 29 0 7 6 20 13 27 6 7 21 29 31 48 11 19 31 53 45 75 14 22 24
43 23 48 -1 4 3 7 8 7 6 0 10 7 10 15 0 8 4 15 9 15 5 0 14 14 21 30 7 17 16
30 21 30 5 0 9 6 9 13 0 7 9 23 20 35 11 12 20 24 20 27 0 9 227 333 245 350
6 6 36 44 67 85 89 119 237 294 345 409 85 91 93 143 28 179 -16 9 -32 19 -35
22 -3 3 -17 4 -32 2z"/>
<path d="M5930 5961 c-12 -17 -17 -18 -39 -7 -34 17 -118 14 -156 -6 -31 -17
-93 -74 -159 -149 -46 -52 -166 -216 -166 -226 0 -17 -106 -104 -156 -128 -86
-42 -112 -47 -124 -24 -6 10 -7 19 -2 19 5 0 9 6 9 14 0 21 45 130 57 138 6 4
7 8 2 8 -5 0 -3 7 4 15 7 8 9 15 4 15 -5 0 -4 4 1 8 6 4 23 32 39 62 16 30 39
69 52 87 13 17 24 36 24 42 0 6 4 11 10 11 14 0 38 51 34 73 -4 30 -33 55 -60
52 -24 -2 -43 -19 -74 -65 -8 -12 -27 -39 -41 -59 -14 -20 -42 -69 -63 -108
l-38 -73 -74 3 c-41 1 -74 4 -74 6 0 3 25 55 55 117 30 62 55 122 55 132 0 24
-37 49 -67 44 -16 -2 -34 -27 -69 -95 -57 -113 -111 -207 -181 -315 -62 -97
-73 -150 -42 -201 24 -39 32 -39 60 2 13 17 26 34 29 37 16 14 86 132 101 173
6 15 16 28 22 28 27 3 141 -1 145 -6 3 -2 -4 -17 -14 -32 -17 -26 -63 -118
-64 -128 0 -3 0 -8 -1 -12 -4 -26 6 -61 22 -82 10 -13 19 -20 19 -16 0 4 6 3
13 -3 13 -11 74 0 138 26 15 6 30 8 33 5 3 -4 6 -1 6 5 0 7 8 12 18 12 10 0
21 3 25 6 3 3 29 17 57 30 l51 24 14 -33 c8 -17 14 -28 15 -24 0 5 7 1 16 -7
37 -37 105 -11 202 79 24 22 47 41 52 43 5 2 12 -12 15 -31 4 -20 20 -49 36
-65 44 -45 89 -49 169 -15 8 3 17 7 20 8 50 20 70 31 70 37 0 4 5 8 11 8 30 0
176 136 225 209 23 35 25 45 16 66 -15 32 -44 26 -80 -16 -55 -66 -176 -179
-192 -179 -4 0 -10 -4 -12 -9 -4 -10 -84 -61 -97 -61 -21 0 -38 30 -35 62 7
61 18 132 24 148 1 3 2 8 1 13 -2 13 70 160 100 202 15 22 39 52 53 67 23 24
24 28 10 42 -21 21 -37 20 -54 -3z m-117 -100 c15 -1 12 -9 -18 -56 -19 -31
-35 -59 -35 -64 0 -5 -4 -11 -8 -13 -5 -1 -22 -23 -39 -48 -33 -49 -45 -63
-130 -157 -30 -35 -60 -63 -66 -63 -6 0 -7 17 -3 47 5 35 14 54 40 77 45 41
63 76 45 87 -10 6 -4 21 24 62 54 78 124 138 155 132 9 -2 25 -4 35 -4z"/>
<path d="M6918 5425 c-2 -1 -21 -5 -43 -8 -35 -5 -66 -11 -100 -21 -5 -2 -23
-8 -38 -14 -16 -7 -31 -12 -33 -12 -3 0 -24 -13 -47 -29 -66 -45 -218 -205
-329 -346 -26 -33 -51 -65 -56 -70 -5 -6 -33 -47 -63 -90 -30 -44 -62 -88 -71
-99 -10 -11 -18 -26 -18 -33 0 -7 -3 -13 -8 -13 -4 0 -14 -14 -21 -32 -9 -19
-16 -27 -19 -19 -11 32 -44 58 -70 55 -72 -7 -112 -16 -117 -25 -4 -5 -10 -7
-15 -4 -4 3 -40 -22 -80 -55 -39 -33 -69 -60 -65 -60 3 0 -5 -11 -19 -25 -13
-13 -37 -42 -53 -62 -15 -21 -33 -44 -40 -50 -6 -7 -26 -42 -44 -78 -19 -36
-37 -65 -40 -65 -13 0 0 -89 17 -122 18 -36 59 -78 75 -78 6 0 44 11 86 25 42
14 77 24 78 23 2 -2 -13 -37 -32 -78 -58 -127 -78 -165 -85 -168 -5 -2 -8 -8
-8 -13 0 -9 -113 -200 -131 -223 -5 -6 -37 -49 -71 -96 -34 -47 -67 -90 -73
-96 -5 -7 -35 -40 -65 -74 -64 -72 -97 -91 -160 -96 -51 -3 -116 28 -143 69
-9 13 -23 31 -32 40 -8 9 -16 19 -16 21 0 3 -7 22 -16 43 -8 21 -17 47 -19 58
-2 11 -7 31 -10 45 -14 59 5 190 27 190 5 0 9 6 9 14 0 8 5 16 11 18 6 2 11
19 12 38 2 31 -1 35 -26 38 -18 2 -29 -2 -33 -12 -3 -9 -11 -16 -18 -16 -19
-1 -76 -94 -84 -141 -16 -86 -2 -206 36 -319 3 -8 6 -20 8 -27 3 -17 44 -74
67 -95 33 -30 100 -57 153 -62 53 -4 155 23 162 43 2 6 8 11 14 11 24 0 146
112 233 213 28 33 55 64 60 70 6 7 26 32 45 57 19 25 37 47 40 50 4 3 21 28
40 55 19 28 36 52 39 55 16 14 158 245 199 325 37 70 35 70 74 31 20 -20 47
-37 60 -38 12 0 30 -2 38 -3 22 -2 121 35 155 59 64 45 123 109 161 173 21 37
40 71 40 75 1 4 2 12 3 18 0 5 20 2 44 -6 48 -18 144 -22 202 -10 38 9 39 8
22 -8 -26 -26 -57 -101 -57 -136 0 -57 40 -114 104 -147 35 -18 150 -14 251
11 11 2 22 5 25 6 3 1 8 2 13 1 4 0 7 4 7 9 0 5 3 9 8 8 13 -3 62 21 115 57
46 31 53 33 57 18 15 -55 80 -102 130 -96 14 2 31 4 38 5 6 1 12 5 12 10 0 5
4 7 9 4 5 -4 11 -3 13 1 1 5 37 30 78 57 70 46 89 62 152 119 44 40 58 50 58
40 0 -6 -9 -21 -21 -34 -49 -56 -68 -127 -44 -162 45 -64 116 -70 232 -20 21
9 44 18 52 19 8 2 17 6 20 11 3 4 20 15 36 23 17 8 36 21 43 28 7 6 16 12 20
12 8 0 52 37 110 92 46 44 55 82 22 91 -17 4 -82 -29 -100 -52 -13 -16 -118
-91 -128 -91 -7 0 -12 -4 -12 -10 0 -5 -5 -10 -11 -10 -6 0 -29 -13 -53 -29
-31 -22 -46 -27 -59 -20 -15 9 -14 16 17 75 50 92 51 131 6 175 l-30 30 19 56
c21 63 21 157 0 179 -74 73 -222 63 -317 -21 -41 -36 -73 -106 -70 -151 3 -48
52 -122 96 -145 19 -10 36 -20 39 -23 11 -10 -163 -166 -185 -166 -13 0 -23
38 -11 42 18 6 -22 48 -47 48 -15 0 -24 6 -24 15 0 8 4 15 8 15 5 0 23 13 40
28 30 27 31 30 16 50 -8 12 -21 22 -29 22 -7 0 -45 -31 -83 -68 -38 -37 -96
-82 -128 -99 -54 -28 -147 -60 -184 -62 -8 0 -34 -2 -58 -4 -61 -4 -93 24 -98
88 l-4 46 48 20 c137 59 228 115 301 188 55 55 65 108 30 151 -18 21 -29 25
-68 23 -60 -2 -151 -36 -207 -79 -25 -19 -49 -32 -54 -29 -6 4 -10 1 -10 -5 0
-6 -4 -9 -9 -6 -9 6 -29 -13 -62 -57 -31 -41 -99 -83 -142 -86 -42 -3 -87 20
-87 44 0 8 -4 15 -8 15 -14 0 -29 63 -27 111 1 46 21 109 35 109 14 0 17 36 5
53 -21 29 -113 -5 -141 -52 -17 -28 -27 -35 -46 -32 -14 2 -113 -41 -130 -56
-10 -9 -18 -12 -18 -6 0 14 78 162 101 191 10 14 19 29 19 34 0 12 143 230
165 252 9 9 14 16 10 16 -7 0 73 101 113 143 53 56 151 84 200 58 26 -14 62
-68 62 -93 0 -28 37 -32 69 -6 68 55 89 140 48 191 -19 23 -78 52 -89 42z
m787 -795 c24 -9 53 -61 47 -83 -1 -4 -4 -21 -5 -36 -3 -25 -57 -106 -57 -86
0 4 -6 3 -12 -3 -22 -17 -84 15 -102 53 -21 43 -20 76 1 114 26 45 76 61 128
41z m-1731 -35 c-3 -12 -6 -28 -8 -36 -1 -8 -8 -25 -16 -39 -7 -14 -12 -26
-11 -28 4 -5 -64 -132 -71 -132 -5 0 -8 -6 -8 -14 0 -17 -149 -176 -166 -176
-12 0 -12 47 -1 110 8 43 47 138 62 150 8 7 15 18 15 25 0 16 93 103 144 136
50 32 67 33 60 4z m1116 -24 c0 -30 -32 -70 -94 -116 -45 -34 -106 -58 -106
-42 0 33 145 182 179 184 17 1 21 -4 21 -26z m-730 -31 c-5 -17 -7 -30 -5 -30
7 0 -32 -104 -55 -150 -42 -82 -99 -150 -179 -213 -63 -50 -73 -41 -51 41 35
138 110 255 222 348 60 50 82 51 68 4z"/>
</g>
</svg>
